<mxfile host="app.diagrams.net" modified="2020-09-09T20:48:14.666Z" agent="5.0 (Windows)" etag="x2WOmGjr0bzJNz8TFBPo" version="13.6.9" type="github">
  <diagram id="4Sl7jf4V9B_bJI4qnbRN" name="Page-1">
    <mxGraphModel dx="768" dy="1158" grid="1" gridSize="10" guides="1" tooltips="1" connect="1" arrows="1" fold="1" page="1" pageScale="1" pageWidth="827" pageHeight="1169" math="0" shadow="0">
      <root>
        <mxCell id="0" />
        <mxCell id="1" parent="0" />
        <mxCell id="crQFML_gqkX_rzHsDoDA-2" value="&lt;div style=&quot;font-size: 16px&quot;&gt;&lt;font style=&quot;font-size: 16px&quot;&gt;Entwickler&lt;/font&gt;&lt;/div&gt;" style="shape=umlActor;verticalLabelPosition=bottom;verticalAlign=top;html=1;outlineConnect=0;" parent="1" vertex="1">
          <mxGeometry x="60" y="20" width="50" height="90" as="geometry" />
        </mxCell>
        <mxCell id="crQFML_gqkX_rzHsDoDA-3" value="" style="endArrow=classic;html=1;" parent="1" edge="1">
          <mxGeometry width="50" height="50" relative="1" as="geometry">
            <mxPoint x="120" y="70" as="sourcePoint" />
            <mxPoint x="300" y="70" as="targetPoint" />
          </mxGeometry>
        </mxCell>
        <mxCell id="crQFML_gqkX_rzHsDoDA-4" value="&lt;font style=&quot;font-size: 16px&quot;&gt;Änderungen&lt;/font&gt;" style="text;html=1;strokeColor=none;fillColor=none;align=center;verticalAlign=middle;whiteSpace=wrap;rounded=0;" parent="1" vertex="1">
          <mxGeometry x="140" y="30" width="140" height="20" as="geometry" />
        </mxCell>
        <mxCell id="nvT9iqWtaR3KW7Lzta7o-21" style="edgeStyle=orthogonalEdgeStyle;rounded=0;orthogonalLoop=1;jettySize=auto;html=1;exitX=0.5;exitY=0;exitDx=0;exitDy=0;" edge="1" parent="1" source="crQFML_gqkX_rzHsDoDA-12">
          <mxGeometry relative="1" as="geometry">
            <mxPoint x="100" y="140" as="targetPoint" />
          </mxGeometry>
        </mxCell>
        <mxCell id="crQFML_gqkX_rzHsDoDA-12" value="&lt;font style=&quot;font-size: 16px&quot;&gt;Jenkins&lt;/font&gt;" style="rounded=1;whiteSpace=wrap;html=1;" parent="1" vertex="1">
          <mxGeometry x="40" y="270" width="120" height="50" as="geometry" />
        </mxCell>
        <mxCell id="crQFML_gqkX_rzHsDoDA-16" value="" style="group" parent="1" vertex="1" connectable="0">
          <mxGeometry x="320" y="10" width="250" height="240" as="geometry" />
        </mxCell>
        <mxCell id="crQFML_gqkX_rzHsDoDA-15" value="" style="shape=cylinder2;whiteSpace=wrap;html=1;boundedLbl=1;backgroundOutline=1;size=15;fillColor=#fad7ac;strokeColor=#b46504;" parent="crQFML_gqkX_rzHsDoDA-16" vertex="1">
          <mxGeometry width="250" height="240" as="geometry" />
        </mxCell>
        <mxCell id="crQFML_gqkX_rzHsDoDA-9" value="&lt;font style=&quot;font-size: 15px&quot;&gt;Jenkinsfile&lt;/font&gt;" style="rounded=0;whiteSpace=wrap;html=1;fillColor=#f5f5f5;strokeColor=#666666;fontColor=#333333;" parent="crQFML_gqkX_rzHsDoDA-16" vertex="1">
          <mxGeometry x="10" y="50" width="100" height="30" as="geometry" />
        </mxCell>
        <mxCell id="crQFML_gqkX_rzHsDoDA-11" value="&lt;font style=&quot;font-size: 15px&quot;&gt;Trainingscode&lt;/font&gt;" style="rounded=0;whiteSpace=wrap;html=1;fillColor=#f5f5f5;strokeColor=#666666;fontColor=#333333;" parent="crQFML_gqkX_rzHsDoDA-16" vertex="1">
          <mxGeometry x="130" y="50" width="100" height="30" as="geometry" />
        </mxCell>
        <mxCell id="crQFML_gqkX_rzHsDoDA-8" value="&lt;font style=&quot;font-size: 15px&quot;&gt;Dockerfile&lt;/font&gt;" style="rounded=0;whiteSpace=wrap;html=1;fillColor=#f5f5f5;strokeColor=#666666;fontColor=#333333;" parent="crQFML_gqkX_rzHsDoDA-16" vertex="1">
          <mxGeometry x="130" y="110" width="100" height="30" as="geometry" />
        </mxCell>
        <mxCell id="crQFML_gqkX_rzHsDoDA-7" value="&lt;font style=&quot;font-size: 15px&quot;&gt;Datensatz&lt;/font&gt;" style="rounded=0;whiteSpace=wrap;html=1;fillColor=#f5f5f5;strokeColor=#666666;fontColor=#333333;" parent="crQFML_gqkX_rzHsDoDA-16" vertex="1">
          <mxGeometry x="10" y="110" width="100" height="30" as="geometry" />
        </mxCell>
        <mxCell id="crQFML_gqkX_rzHsDoDA-10" value="&lt;font style=&quot;font-size: 15px&quot;&gt;Testcode&lt;/font&gt;" style="rounded=0;whiteSpace=wrap;html=1;fillColor=#f5f5f5;strokeColor=#666666;fontColor=#333333;" parent="crQFML_gqkX_rzHsDoDA-16" vertex="1">
          <mxGeometry x="70" y="160" width="100" height="30" as="geometry" />
        </mxCell>
        <mxCell id="crQFML_gqkX_rzHsDoDA-6" value="&lt;font style=&quot;font-size: 16px&quot;&gt;Git Atos One&lt;/font&gt;" style="text;html=1;strokeColor=none;fillColor=none;align=center;verticalAlign=middle;whiteSpace=wrap;rounded=0;" parent="crQFML_gqkX_rzHsDoDA-16" vertex="1">
          <mxGeometry x="10" width="230" height="20" as="geometry" />
        </mxCell>
        <mxCell id="nvT9iqWtaR3KW7Lzta7o-6" value="" style="endArrow=classic;startArrow=classic;html=1;exitX=0.75;exitY=0;exitDx=0;exitDy=0;" edge="1" parent="1" source="crQFML_gqkX_rzHsDoDA-12" target="crQFML_gqkX_rzHsDoDA-15">
          <mxGeometry width="50" height="50" relative="1" as="geometry">
            <mxPoint x="460" y="450" as="sourcePoint" />
            <mxPoint x="510" y="400" as="targetPoint" />
          </mxGeometry>
        </mxCell>
        <mxCell id="nvT9iqWtaR3KW7Lzta7o-8" value="&lt;div&gt;&lt;font style=&quot;font-size: 14px&quot;&gt;Überprüfen auf&lt;/font&gt;&lt;/div&gt;&lt;div&gt;&lt;font style=&quot;font-size: 14px&quot;&gt; Änderungen&lt;/font&gt;&lt;/div&gt;" style="text;html=1;align=center;verticalAlign=middle;resizable=0;points=[];autosize=1;" vertex="1" parent="1">
          <mxGeometry x="155" y="180" width="110" height="40" as="geometry" />
        </mxCell>
        <mxCell id="nvT9iqWtaR3KW7Lzta7o-13" value="&lt;font style=&quot;font-size: 15px&quot;&gt;Ausführen des Jenkinsfiles&lt;/font&gt;" style="text;html=1;strokeColor=none;fillColor=none;align=center;verticalAlign=middle;whiteSpace=wrap;rounded=0;" vertex="1" parent="1">
          <mxGeometry x="169" y="300" width="170" height="20" as="geometry" />
        </mxCell>
        <mxCell id="nvT9iqWtaR3KW7Lzta7o-16" value="&lt;font style=&quot;font-size: 15px&quot;&gt;Meldung über Abschluss&lt;/font&gt;" style="text;html=1;strokeColor=none;fillColor=none;align=center;verticalAlign=middle;whiteSpace=wrap;rounded=0;" vertex="1" parent="1">
          <mxGeometry x="90" y="370" width="200" height="20" as="geometry" />
        </mxCell>
        <mxCell id="nvT9iqWtaR3KW7Lzta7o-19" value="" style="group" vertex="1" connectable="0" parent="1">
          <mxGeometry x="339" y="260" width="200" height="210" as="geometry" />
        </mxCell>
        <mxCell id="nvT9iqWtaR3KW7Lzta7o-2" value="" style="shape=cylinder3;whiteSpace=wrap;html=1;boundedLbl=1;backgroundOutline=1;size=15;fillColor=#fff2cc;strokeColor=#d6b656;" vertex="1" parent="nvT9iqWtaR3KW7Lzta7o-19">
          <mxGeometry width="200" height="210" as="geometry" />
        </mxCell>
        <mxCell id="nvT9iqWtaR3KW7Lzta7o-4" value="&lt;font style=&quot;font-size: 15px&quot;&gt;Datensatz&lt;/font&gt;" style="rounded=0;whiteSpace=wrap;html=1;" vertex="1" parent="nvT9iqWtaR3KW7Lzta7o-19">
          <mxGeometry x="51" y="40" width="110" height="30" as="geometry" />
        </mxCell>
        <mxCell id="nvT9iqWtaR3KW7Lzta7o-5" value="&lt;font style=&quot;font-size: 16px&quot;&gt;Cloudumgebung&lt;/font&gt;" style="text;html=1;strokeColor=none;fillColor=none;align=center;verticalAlign=middle;whiteSpace=wrap;rounded=0;" vertex="1" parent="nvT9iqWtaR3KW7Lzta7o-19">
          <mxGeometry x="20" width="160" height="20" as="geometry" />
        </mxCell>
        <mxCell id="nvT9iqWtaR3KW7Lzta7o-9" value="" style="rounded=1;whiteSpace=wrap;html=1;" vertex="1" parent="nvT9iqWtaR3KW7Lzta7o-19">
          <mxGeometry x="11" y="80" width="180" height="110" as="geometry" />
        </mxCell>
        <mxCell id="nvT9iqWtaR3KW7Lzta7o-10" value="&lt;font style=&quot;font-size: 14px&quot;&gt;Kubernetes&lt;/font&gt;" style="text;html=1;strokeColor=none;fillColor=none;align=center;verticalAlign=middle;whiteSpace=wrap;rounded=0;" vertex="1" parent="nvT9iqWtaR3KW7Lzta7o-19">
          <mxGeometry x="36" y="80" width="130" height="20" as="geometry" />
        </mxCell>
        <mxCell id="nvT9iqWtaR3KW7Lzta7o-14" value="&lt;font style=&quot;font-size: 15px&quot;&gt;Agent &lt;/font&gt;&lt;br&gt;(Docker Container)" style="rounded=1;whiteSpace=wrap;html=1;fillColor=#d5e8d4;strokeColor=#82b366;" vertex="1" parent="nvT9iqWtaR3KW7Lzta7o-19">
          <mxGeometry x="41" y="110" width="120" height="60" as="geometry" />
        </mxCell>
        <mxCell id="nvT9iqWtaR3KW7Lzta7o-12" value="" style="endArrow=classic;html=1;exitX=1;exitY=1;exitDx=0;exitDy=0;entryX=0.017;entryY=0.082;entryDx=0;entryDy=0;entryPerimeter=0;" edge="1" parent="1" source="crQFML_gqkX_rzHsDoDA-12" target="nvT9iqWtaR3KW7Lzta7o-9">
          <mxGeometry width="50" height="50" relative="1" as="geometry">
            <mxPoint x="530" y="520" as="sourcePoint" />
            <mxPoint x="580" y="470" as="targetPoint" />
          </mxGeometry>
        </mxCell>
        <mxCell id="nvT9iqWtaR3KW7Lzta7o-15" value="" style="endArrow=classic;html=1;entryX=0.5;entryY=1;entryDx=0;entryDy=0;exitX=0;exitY=0.5;exitDx=0;exitDy=0;" edge="1" parent="1" source="nvT9iqWtaR3KW7Lzta7o-14" target="crQFML_gqkX_rzHsDoDA-12">
          <mxGeometry width="50" height="50" relative="1" as="geometry">
            <mxPoint x="530" y="520" as="sourcePoint" />
            <mxPoint x="580" y="470" as="targetPoint" />
          </mxGeometry>
        </mxCell>
        <mxCell id="nvT9iqWtaR3KW7Lzta7o-22" value="&lt;div&gt;&lt;font style=&quot;font-size: 15px&quot;&gt;Meldung &lt;br&gt;&lt;/font&gt;&lt;/div&gt;&lt;div&gt;&lt;font style=&quot;font-size: 15px&quot;&gt;über &lt;br&gt;&lt;/font&gt;&lt;/div&gt;&lt;div&gt;&lt;font style=&quot;font-size: 15px&quot;&gt;Abschluss&lt;/font&gt;&lt;/div&gt;" style="text;html=1;strokeColor=none;fillColor=none;align=center;verticalAlign=middle;whiteSpace=wrap;rounded=0;" vertex="1" parent="1">
          <mxGeometry x="10" y="180" width="110" height="80" as="geometry" />
        </mxCell>
        <mxCell id="nvT9iqWtaR3KW7Lzta7o-24" value="&lt;font style=&quot;font-size: 16px&quot;&gt;1&lt;/font&gt;" style="text;html=1;strokeColor=none;fillColor=none;align=center;verticalAlign=middle;whiteSpace=wrap;rounded=0;" vertex="1" parent="1">
          <mxGeometry x="190" y="10" width="40" height="20" as="geometry" />
        </mxCell>
        <mxCell id="nvT9iqWtaR3KW7Lzta7o-25" value="&lt;font style=&quot;font-size: 16px&quot;&gt;2&lt;/font&gt;" style="text;html=1;strokeColor=none;fillColor=none;align=center;verticalAlign=middle;whiteSpace=wrap;rounded=0;" vertex="1" parent="1">
          <mxGeometry x="190" y="160" width="40" height="20" as="geometry" />
        </mxCell>
        <mxCell id="nvT9iqWtaR3KW7Lzta7o-26" value="&lt;font style=&quot;font-size: 16px&quot;&gt;3&lt;/font&gt;" style="text;html=1;strokeColor=none;fillColor=none;align=center;verticalAlign=middle;whiteSpace=wrap;rounded=0;" vertex="1" parent="1">
          <mxGeometry x="234" y="270" width="40" height="20" as="geometry" />
        </mxCell>
        <mxCell id="nvT9iqWtaR3KW7Lzta7o-27" value="&lt;font style=&quot;font-size: 16px&quot;&gt;4&lt;/font&gt;" style="text;html=1;strokeColor=none;fillColor=none;align=center;verticalAlign=middle;whiteSpace=wrap;rounded=0;" vertex="1" parent="1">
          <mxGeometry x="155" y="400" width="40" height="20" as="geometry" />
        </mxCell>
        <mxCell id="nvT9iqWtaR3KW7Lzta7o-28" value="&lt;font style=&quot;font-size: 16px&quot;&gt;5&lt;/font&gt;" style="text;html=1;strokeColor=none;fillColor=none;align=center;verticalAlign=middle;whiteSpace=wrap;rounded=0;" vertex="1" parent="1">
          <mxGeometry x="45" y="160" width="40" height="20" as="geometry" />
        </mxCell>
      </root>
    </mxGraphModel>
  </diagram>
</mxfile>
